<?xml version="1.0" encoding="UTF-8" standalone="no"?>
<!DOCTYPE svg PUBLIC "-//W3C//DTD SVG 1.1//EN"
 "http://www.w3.org/Graphics/SVG/1.1/DTD/svg11.dtd">
<!-- Generated by graphviz version 2.49.0 (20210828.1703)
 -->
<!-- Title: G Pages: 1 -->
<svg width="973pt" height="1700pt"
 viewBox="0.00 0.00 972.94 1700.00" xmlns="http://www.w3.org/2000/svg" xmlns:xlink="http://www.w3.org/1999/xlink">
<g id="graph0" class="graph" transform="scale(1 1) rotate(0) translate(4 1696)">
<title>G</title>
<polygon fill="white" stroke="transparent" points="-4,4 -4,-1696 968.94,-1696 968.94,4 -4,4"/>
<!-- 00dece87 -->
<g id="node1" class="node">
<title>00dece87</title>
<ellipse fill="none" stroke="black" cx="156.15" cy="-450" rx="45.49" ry="18"/>
<text text-anchor="middle" x="156.15" y="-446.3" font-family="Times New Roman,serif" font-size="14.00">00dece87</text>
</g>
<!-- 00c7809f -->
<g id="node2" class="node">
<title>00c7809f</title>
<ellipse fill="none" stroke="black" cx="102.15" cy="-378" rx="44.39" ry="18"/>
<text text-anchor="middle" x="102.15" y="-374.3" font-family="Times New Roman,serif" font-size="14.00">00c7809f</text>
</g>
<!-- 00dece87&#45;&gt;00c7809f -->
<g id="edge1" class="edge">
<title>00dece87&#45;&gt;00c7809f</title>
<path fill="none" stroke="black" d="M143.35,-432.41C136.69,-423.78 128.42,-413.06 121.04,-403.5"/>
<polygon fill="black" stroke="black" points="123.73,-401.25 114.85,-395.47 118.19,-405.53 123.73,-401.25"/>
</g>
<!-- 00d2e60e -->
<g id="node14" class="node">
<title>00d2e60e</title>
<ellipse fill="none" stroke="black" cx="210.15" cy="-378" rx="45.49" ry="18"/>
<text text-anchor="middle" x="210.15" y="-374.3" font-family="Times New Roman,serif" font-size="14.00">00d2e60e</text>
</g>
<!-- 00dece87&#45;&gt;00d2e60e -->
<g id="edge8" class="edge">
<title>00dece87&#45;&gt;00d2e60e</title>
<path fill="none" stroke="black" d="M168.94,-432.41C175.6,-423.78 183.87,-413.06 191.25,-403.5"/>
<polygon fill="black" stroke="black" points="194.1,-405.53 197.44,-395.47 188.56,-401.25 194.1,-405.53"/>
</g>
<!-- 00fbdc20 -->
<g id="node38" class="node">
<title>00fbdc20</title>
<ellipse fill="none" stroke="black" cx="47.15" cy="-306" rx="45.49" ry="18"/>
<text text-anchor="middle" x="47.15" y="-302.3" font-family="Times New Roman,serif" font-size="14.00">00fbdc20</text>
</g>
<!-- 00c7809f&#45;&gt;00fbdc20 -->
<g id="edge29" class="edge">
<title>00c7809f&#45;&gt;00fbdc20</title>
<path fill="none" stroke="black" d="M89.39,-360.76C82.62,-352.14 74.15,-341.36 66.57,-331.73"/>
<polygon fill="black" stroke="black" points="69.15,-329.33 60.22,-323.63 63.64,-333.66 69.15,-329.33"/>
</g>
<!-- 00b47622 -->
<g id="node46" class="node">
<title>00b47622</title>
<ellipse fill="none" stroke="black" cx="157.15" cy="-306" rx="46.29" ry="18"/>
<text text-anchor="middle" x="157.15" y="-302.3" font-family="Times New Roman,serif" font-size="14.00">00b47622</text>
</g>
<!-- 00c7809f&#45;&gt;00b47622 -->
<g id="edge46" class="edge">
<title>00c7809f&#45;&gt;00b47622</title>
<path fill="none" stroke="black" d="M114.9,-360.76C121.68,-352.14 130.15,-341.36 137.72,-331.73"/>
<polygon fill="black" stroke="black" points="140.65,-333.66 144.08,-323.63 135.15,-329.33 140.65,-333.66"/>
</g>
<!-- 00ad1393 -->
<g id="node3" class="node">
<title>00ad1393</title>
<ellipse fill="none" stroke="black" cx="536.15" cy="-1098" rx="46.29" ry="18"/>
<text text-anchor="middle" x="536.15" y="-1094.3" font-family="Times New Roman,serif" font-size="14.00">00ad1393</text>
</g>
<!-- 00ca2e96 -->
<g id="node4" class="node">
<title>00ca2e96</title>
<ellipse fill="none" stroke="black" cx="481.15" cy="-1026" rx="44.69" ry="18"/>
<text text-anchor="middle" x="481.15" y="-1022.3" font-family="Times New Roman,serif" font-size="14.00">00ca2e96</text>
</g>
<!-- 00ad1393&#45;&gt;00ca2e96 -->
<g id="edge2" class="edge">
<title>00ad1393&#45;&gt;00ca2e96</title>
<path fill="none" stroke="black" d="M523.11,-1080.41C516.33,-1071.78 507.91,-1061.06 500.39,-1051.5"/>
<polygon fill="black" stroke="black" points="503.02,-1049.17 494.09,-1043.47 497.51,-1053.5 503.02,-1049.17"/>
</g>
<!-- 009d1b87 -->
<g id="node32" class="node">
<title>009d1b87</title>
<ellipse fill="none" stroke="black" cx="591.15" cy="-1026" rx="46.59" ry="18"/>
<text text-anchor="middle" x="591.15" y="-1022.3" font-family="Times New Roman,serif" font-size="14.00">009d1b87</text>
</g>
<!-- 00ad1393&#45;&gt;009d1b87 -->
<g id="edge20" class="edge">
<title>00ad1393&#45;&gt;009d1b87</title>
<path fill="none" stroke="black" d="M549.18,-1080.41C555.96,-1071.78 564.38,-1061.06 571.9,-1051.5"/>
<polygon fill="black" stroke="black" points="574.78,-1053.5 578.21,-1043.47 569.27,-1049.17 574.78,-1053.5"/>
</g>
<!-- 00c25720 -->
<g id="node15" class="node">
<title>00c25720</title>
<ellipse fill="none" stroke="black" cx="426.15" cy="-954" rx="46.29" ry="18"/>
<text text-anchor="middle" x="426.15" y="-950.3" font-family="Times New Roman,serif" font-size="14.00">00c25720</text>
</g>
<!-- 00ca2e96&#45;&gt;00c25720 -->
<g id="edge40" class="edge">
<title>00ca2e96&#45;&gt;00c25720</title>
<path fill="none" stroke="black" d="M468.11,-1008.41C461.33,-999.78 452.91,-989.06 445.39,-979.5"/>
<polygon fill="black" stroke="black" points="448.02,-977.17 439.09,-971.47 442.51,-981.5 448.02,-977.17"/>
</g>
<!-- 00e9c95c -->
<g id="node42" class="node">
<title>00e9c95c</title>
<ellipse fill="none" stroke="black" cx="536.15" cy="-954" rx="45.49" ry="18"/>
<text text-anchor="middle" x="536.15" y="-950.3" font-family="Times New Roman,serif" font-size="14.00">00e9c95c</text>
</g>
<!-- 00ca2e96&#45;&gt;00e9c95c -->
<g id="edge34" class="edge">
<title>00ca2e96&#45;&gt;00e9c95c</title>
<path fill="none" stroke="black" d="M494.18,-1008.41C500.96,-999.78 509.38,-989.06 516.9,-979.5"/>
<polygon fill="black" stroke="black" points="519.78,-981.5 523.21,-971.47 514.27,-977.17 519.78,-981.5"/>
</g>
<!-- 00a26a3a -->
<g id="node5" class="node">
<title>00a26a3a</title>
<ellipse fill="none" stroke="black" cx="699.15" cy="-1458" rx="44.39" ry="18"/>
<text text-anchor="middle" x="699.15" y="-1454.3" font-family="Times New Roman,serif" font-size="14.00">00a26a3a</text>
</g>
<!-- 00d7e5f7 -->
<g id="node6" class="node">
<title>00d7e5f7</title>
<ellipse fill="none" stroke="black" cx="645.15" cy="-1386" rx="44.39" ry="18"/>
<text text-anchor="middle" x="645.15" y="-1382.3" font-family="Times New Roman,serif" font-size="14.00">00d7e5f7</text>
</g>
<!-- 00a26a3a&#45;&gt;00d7e5f7 -->
<g id="edge3" class="edge">
<title>00a26a3a&#45;&gt;00d7e5f7</title>
<path fill="none" stroke="black" d="M686.35,-1440.41C679.69,-1431.78 671.42,-1421.06 664.04,-1411.5"/>
<polygon fill="black" stroke="black" points="666.73,-1409.25 657.85,-1403.47 661.19,-1413.53 666.73,-1409.25"/>
</g>
<!-- 004ca0c3 -->
<g id="node29" class="node">
<title>004ca0c3</title>
<ellipse fill="none" stroke="black" cx="753.15" cy="-1386" rx="45.49" ry="18"/>
<text text-anchor="middle" x="753.15" y="-1382.3" font-family="Times New Roman,serif" font-size="14.00">004ca0c3</text>
</g>
<!-- 00a26a3a&#45;&gt;004ca0c3 -->
<g id="edge18" class="edge">
<title>00a26a3a&#45;&gt;004ca0c3</title>
<path fill="none" stroke="black" d="M711.94,-1440.41C718.6,-1431.78 726.87,-1421.06 734.25,-1411.5"/>
<polygon fill="black" stroke="black" points="737.1,-1413.53 740.44,-1403.47 731.56,-1409.25 737.1,-1413.53"/>
</g>
<!-- 008c4e0f -->
<g id="node23" class="node">
<title>008c4e0f</title>
<ellipse fill="none" stroke="black" cx="593.15" cy="-1314" rx="44.39" ry="18"/>
<text text-anchor="middle" x="593.15" y="-1310.3" font-family="Times New Roman,serif" font-size="14.00">008c4e0f</text>
</g>
<!-- 00d7e5f7&#45;&gt;008c4e0f -->
<g id="edge13" class="edge">
<title>00d7e5f7&#45;&gt;008c4e0f</title>
<path fill="none" stroke="black" d="M632.82,-1368.41C626.48,-1359.87 618.61,-1349.28 611.56,-1339.79"/>
<polygon fill="black" stroke="black" points="614.15,-1337.41 605.38,-1331.47 608.53,-1341.58 614.15,-1337.41"/>
</g>
<!-- 008f589f -->
<g id="node24" class="node">
<title>008f589f</title>
<ellipse fill="none" stroke="black" cx="698.15" cy="-1314" rx="42.79" ry="18"/>
<text text-anchor="middle" x="698.15" y="-1310.3" font-family="Times New Roman,serif" font-size="14.00">008f589f</text>
</g>
<!-- 00d7e5f7&#45;&gt;008f589f -->
<g id="edge14" class="edge">
<title>00d7e5f7&#45;&gt;008f589f</title>
<path fill="none" stroke="black" d="M657.71,-1368.41C664.24,-1359.78 672.36,-1349.06 679.6,-1339.5"/>
<polygon fill="black" stroke="black" points="682.43,-1341.56 685.68,-1331.47 676.85,-1337.33 682.43,-1341.56"/>
</g>
<!-- 00f66640 -->
<g id="node7" class="node">
<title>00f66640</title>
<ellipse fill="none" stroke="black" cx="211.15" cy="-522" rx="44.39" ry="18"/>
<text text-anchor="middle" x="211.15" y="-518.3" font-family="Times New Roman,serif" font-size="14.00">00f66640</text>
</g>
<!-- 00f66640&#45;&gt;00dece87 -->
<g id="edge4" class="edge">
<title>00f66640&#45;&gt;00dece87</title>
<path fill="none" stroke="black" d="M198.39,-504.76C191.62,-496.14 183.15,-485.36 175.57,-475.73"/>
<polygon fill="black" stroke="black" points="178.15,-473.33 169.22,-467.63 172.64,-477.66 178.15,-473.33"/>
</g>
<!-- 00c4c9d9 -->
<g id="node36" class="node">
<title>00c4c9d9</title>
<ellipse fill="none" stroke="black" cx="266.15" cy="-450" rx="46.29" ry="18"/>
<text text-anchor="middle" x="266.15" y="-446.3" font-family="Times New Roman,serif" font-size="14.00">00c4c9d9</text>
</g>
<!-- 00f66640&#45;&gt;00c4c9d9 -->
<g id="edge24" class="edge">
<title>00f66640&#45;&gt;00c4c9d9</title>
<path fill="none" stroke="black" d="M223.9,-504.76C230.68,-496.14 239.15,-485.36 246.72,-475.73"/>
<polygon fill="black" stroke="black" points="249.65,-477.66 253.08,-467.63 244.15,-473.33 249.65,-477.66"/>
</g>
<!-- 0061827d -->
<g id="node8" class="node">
<title>0061827d</title>
<ellipse fill="none" stroke="black" cx="644.15" cy="-1242" rx="46.29" ry="18"/>
<text text-anchor="middle" x="644.15" y="-1238.3" font-family="Times New Roman,serif" font-size="14.00">0061827d</text>
</g>
<!-- 00a17c5e -->
<g id="node9" class="node">
<title>00a17c5e</title>
<ellipse fill="none" stroke="black" cx="590.15" cy="-1170" rx="44.69" ry="18"/>
<text text-anchor="middle" x="590.15" y="-1166.3" font-family="Times New Roman,serif" font-size="14.00">00a17c5e</text>
</g>
<!-- 0061827d&#45;&gt;00a17c5e -->
<g id="edge5" class="edge">
<title>0061827d&#45;&gt;00a17c5e</title>
<path fill="none" stroke="black" d="M631.35,-1224.41C624.69,-1215.78 616.42,-1205.06 609.04,-1195.5"/>
<polygon fill="black" stroke="black" points="611.73,-1193.25 602.85,-1187.47 606.19,-1197.53 611.73,-1193.25"/>
</g>
<!-- 006eb17a -->
<g id="node40" class="node">
<title>006eb17a</title>
<ellipse fill="none" stroke="black" cx="698.15" cy="-1170" rx="45.49" ry="18"/>
<text text-anchor="middle" x="698.15" y="-1166.3" font-family="Times New Roman,serif" font-size="14.00">006eb17a</text>
</g>
<!-- 0061827d&#45;&gt;006eb17a -->
<g id="edge31" class="edge">
<title>0061827d&#45;&gt;006eb17a</title>
<path fill="none" stroke="black" d="M656.94,-1224.41C663.6,-1215.78 671.87,-1205.06 679.25,-1195.5"/>
<polygon fill="black" stroke="black" points="682.1,-1197.53 685.44,-1187.47 676.56,-1193.25 682.1,-1197.53"/>
</g>
<!-- 00a17c5e&#45;&gt;00ad1393 -->
<g id="edge27" class="edge">
<title>00a17c5e&#45;&gt;00ad1393</title>
<path fill="none" stroke="black" d="M577.35,-1152.41C570.69,-1143.78 562.42,-1133.06 555.04,-1123.5"/>
<polygon fill="black" stroke="black" points="557.73,-1121.25 548.85,-1115.47 552.19,-1125.53 557.73,-1121.25"/>
</g>
<!-- 009e9fc7 -->
<g id="node34" class="node">
<title>009e9fc7</title>
<ellipse fill="none" stroke="black" cx="644.15" cy="-1098" rx="44.39" ry="18"/>
<text text-anchor="middle" x="644.15" y="-1094.3" font-family="Times New Roman,serif" font-size="14.00">009e9fc7</text>
</g>
<!-- 00a17c5e&#45;&gt;009e9fc7 -->
<g id="edge22" class="edge">
<title>00a17c5e&#45;&gt;009e9fc7</title>
<path fill="none" stroke="black" d="M602.94,-1152.41C609.6,-1143.78 617.87,-1133.06 625.25,-1123.5"/>
<polygon fill="black" stroke="black" points="628.1,-1125.53 631.44,-1115.47 622.56,-1121.25 628.1,-1125.53"/>
</g>
<!-- 000ac69f -->
<g id="node10" class="node">
<title>000ac69f</title>
<ellipse fill="none" stroke="black" cx="862.15" cy="-1674" rx="44.39" ry="18"/>
<text text-anchor="middle" x="862.15" y="-1670.3" font-family="Times New Roman,serif" font-size="14.00">000ac69f</text>
</g>
<!-- 00ebba12 -->
<g id="node11" class="node">
<title>00ebba12</title>
<ellipse fill="none" stroke="black" cx="807.15" cy="-1602" rx="46.29" ry="18"/>
<text text-anchor="middle" x="807.15" y="-1598.3" font-family="Times New Roman,serif" font-size="14.00">00ebba12</text>
</g>
<!-- 000ac69f&#45;&gt;00ebba12 -->
<g id="edge6" class="edge">
<title>000ac69f&#45;&gt;00ebba12</title>
<path fill="none" stroke="black" d="M849.39,-1656.76C842.62,-1648.14 834.15,-1637.36 826.57,-1627.73"/>
<polygon fill="black" stroke="black" points="829.15,-1625.33 820.22,-1619.63 823.64,-1629.66 829.15,-1625.33"/>
</g>
<!-- 00cb0c0b -->
<g id="node33" class="node">
<title>00cb0c0b</title>
<ellipse fill="none" stroke="black" cx="918.15" cy="-1602" rx="46.59" ry="18"/>
<text text-anchor="middle" x="918.15" y="-1598.3" font-family="Times New Roman,serif" font-size="14.00">00cb0c0b</text>
</g>
<!-- 000ac69f&#45;&gt;00cb0c0b -->
<g id="edge21" class="edge">
<title>000ac69f&#45;&gt;00cb0c0b</title>
<path fill="none" stroke="black" d="M875.13,-1656.76C882.03,-1648.14 890.65,-1637.36 898.36,-1627.73"/>
<polygon fill="black" stroke="black" points="901.33,-1629.63 904.84,-1619.63 895.86,-1625.26 901.33,-1629.63"/>
</g>
<!-- 00453483 -->
<g id="node21" class="node">
<title>00453483</title>
<ellipse fill="none" stroke="black" cx="752.15" cy="-1530" rx="46.29" ry="18"/>
<text text-anchor="middle" x="752.15" y="-1526.3" font-family="Times New Roman,serif" font-size="14.00">00453483</text>
</g>
<!-- 00ebba12&#45;&gt;00453483 -->
<g id="edge39" class="edge">
<title>00ebba12&#45;&gt;00453483</title>
<path fill="none" stroke="black" d="M794.11,-1584.41C787.33,-1575.78 778.91,-1565.06 771.39,-1555.5"/>
<polygon fill="black" stroke="black" points="774.02,-1553.17 765.09,-1547.47 768.51,-1557.5 774.02,-1553.17"/>
</g>
<!-- 00aded97 -->
<g id="node45" class="node">
<title>00aded97</title>
<ellipse fill="none" stroke="black" cx="862.15" cy="-1530" rx="46.29" ry="18"/>
<text text-anchor="middle" x="862.15" y="-1526.3" font-family="Times New Roman,serif" font-size="14.00">00aded97</text>
</g>
<!-- 00ebba12&#45;&gt;00aded97 -->
<g id="edge38" class="edge">
<title>00ebba12&#45;&gt;00aded97</title>
<path fill="none" stroke="black" d="M820.18,-1584.41C826.96,-1575.78 835.38,-1565.06 842.9,-1555.5"/>
<polygon fill="black" stroke="black" points="845.78,-1557.5 849.21,-1547.47 840.27,-1553.17 845.78,-1557.5"/>
</g>
<!-- 00346a66 -->
<g id="node12" class="node">
<title>00346a66</title>
<ellipse fill="none" stroke="black" cx="372.15" cy="-882" rx="45.49" ry="18"/>
<text text-anchor="middle" x="372.15" y="-878.3" font-family="Times New Roman,serif" font-size="14.00">00346a66</text>
</g>
<!-- 005f4f74 -->
<g id="node13" class="node">
<title>005f4f74</title>
<ellipse fill="none" stroke="black" cx="319.15" cy="-810" rx="42.79" ry="18"/>
<text text-anchor="middle" x="319.15" y="-806.3" font-family="Times New Roman,serif" font-size="14.00">005f4f74</text>
</g>
<!-- 00346a66&#45;&gt;005f4f74 -->
<g id="edge7" class="edge">
<title>00346a66&#45;&gt;005f4f74</title>
<path fill="none" stroke="black" d="M359.59,-864.41C353.05,-855.78 344.94,-845.06 337.69,-835.5"/>
<polygon fill="black" stroke="black" points="340.44,-833.33 331.62,-827.47 334.86,-837.56 340.44,-833.33"/>
</g>
<!-- 00c4a36e -->
<g id="node43" class="node">
<title>00c4a36e</title>
<ellipse fill="none" stroke="black" cx="425.15" cy="-810" rx="44.69" ry="18"/>
<text text-anchor="middle" x="425.15" y="-806.3" font-family="Times New Roman,serif" font-size="14.00">00c4a36e</text>
</g>
<!-- 00346a66&#45;&gt;00c4a36e -->
<g id="edge36" class="edge">
<title>00346a66&#45;&gt;00c4a36e</title>
<path fill="none" stroke="black" d="M384.71,-864.41C391.24,-855.78 399.36,-845.06 406.6,-835.5"/>
<polygon fill="black" stroke="black" points="409.43,-837.56 412.68,-827.47 403.85,-833.33 409.43,-837.56"/>
</g>
<!-- 00d55407 -->
<g id="node19" class="node">
<title>00d55407</title>
<ellipse fill="none" stroke="black" cx="265.15" cy="-738" rx="46.29" ry="18"/>
<text text-anchor="middle" x="265.15" y="-734.3" font-family="Times New Roman,serif" font-size="14.00">00d55407</text>
</g>
<!-- 005f4f74&#45;&gt;00d55407 -->
<g id="edge28" class="edge">
<title>005f4f74&#45;&gt;00d55407</title>
<path fill="none" stroke="black" d="M306.62,-792.76C299.97,-784.14 291.66,-773.36 284.22,-763.73"/>
<polygon fill="black" stroke="black" points="286.86,-761.41 277.98,-755.63 281.31,-765.69 286.86,-761.41"/>
</g>
<!-- 00f518d7 -->
<g id="node37" class="node">
<title>00f518d7</title>
<ellipse fill="none" stroke="black" cx="374.15" cy="-738" rx="44.69" ry="18"/>
<text text-anchor="middle" x="374.15" y="-734.3" font-family="Times New Roman,serif" font-size="14.00">00f518d7</text>
</g>
<!-- 005f4f74&#45;&gt;00f518d7 -->
<g id="edge26" class="edge">
<title>005f4f74&#45;&gt;00f518d7</title>
<path fill="none" stroke="black" d="M331.9,-792.76C338.68,-784.14 347.15,-773.36 354.72,-763.73"/>
<polygon fill="black" stroke="black" points="357.65,-765.66 361.08,-755.63 352.15,-761.33 357.65,-765.66"/>
</g>
<!-- 00c25720&#45;&gt;00346a66 -->
<g id="edge35" class="edge">
<title>00c25720&#45;&gt;00346a66</title>
<path fill="none" stroke="black" d="M413.35,-936.41C406.69,-927.78 398.42,-917.06 391.04,-907.5"/>
<polygon fill="black" stroke="black" points="393.73,-905.25 384.85,-899.47 388.19,-909.53 393.73,-905.25"/>
</g>
<!-- 006c395f -->
<g id="node16" class="node">
<title>006c395f</title>
<ellipse fill="none" stroke="black" cx="480.15" cy="-882" rx="44.39" ry="18"/>
<text text-anchor="middle" x="480.15" y="-878.3" font-family="Times New Roman,serif" font-size="14.00">006c395f</text>
</g>
<!-- 00c25720&#45;&gt;006c395f -->
<g id="edge9" class="edge">
<title>00c25720&#45;&gt;006c395f</title>
<path fill="none" stroke="black" d="M438.94,-936.41C445.6,-927.78 453.87,-917.06 461.25,-907.5"/>
<polygon fill="black" stroke="black" points="464.1,-909.53 467.44,-899.47 458.56,-905.25 464.1,-909.53"/>
</g>
<!-- 007be514 -->
<g id="node17" class="node">
<title>007be514</title>
<ellipse fill="none" stroke="black" cx="210.15" cy="-666" rx="46.29" ry="18"/>
<text text-anchor="middle" x="210.15" y="-662.3" font-family="Times New Roman,serif" font-size="14.00">007be514</text>
</g>
<!-- 00a8a3be -->
<g id="node18" class="node">
<title>00a8a3be</title>
<ellipse fill="none" stroke="black" cx="156.15" cy="-594" rx="44.69" ry="18"/>
<text text-anchor="middle" x="156.15" y="-590.3" font-family="Times New Roman,serif" font-size="14.00">00a8a3be</text>
</g>
<!-- 007be514&#45;&gt;00a8a3be -->
<g id="edge10" class="edge">
<title>007be514&#45;&gt;00a8a3be</title>
<path fill="none" stroke="black" d="M197.35,-648.41C190.69,-639.78 182.42,-629.06 175.04,-619.5"/>
<polygon fill="black" stroke="black" points="177.73,-617.25 168.85,-611.47 172.19,-621.53 177.73,-617.25"/>
</g>
<!-- 006bc594 -->
<g id="node27" class="node">
<title>006bc594</title>
<ellipse fill="none" stroke="black" cx="265.15" cy="-594" rx="46.29" ry="18"/>
<text text-anchor="middle" x="265.15" y="-590.3" font-family="Times New Roman,serif" font-size="14.00">006bc594</text>
</g>
<!-- 007be514&#45;&gt;006bc594 -->
<g id="edge33" class="edge">
<title>007be514&#45;&gt;006bc594</title>
<path fill="none" stroke="black" d="M223.18,-648.41C229.96,-639.78 238.38,-629.06 245.9,-619.5"/>
<polygon fill="black" stroke="black" points="248.78,-621.5 252.21,-611.47 243.27,-617.17 248.78,-621.5"/>
</g>
<!-- 00d55407&#45;&gt;007be514 -->
<g id="edge45" class="edge">
<title>00d55407&#45;&gt;007be514</title>
<path fill="none" stroke="black" d="M252.11,-720.41C245.33,-711.78 236.91,-701.06 229.39,-691.5"/>
<polygon fill="black" stroke="black" points="232.02,-689.17 223.09,-683.47 226.51,-693.5 232.02,-689.17"/>
</g>
<!-- 005b45b4 -->
<g id="node20" class="node">
<title>005b45b4</title>
<ellipse fill="none" stroke="black" cx="321.15" cy="-666" rx="46.59" ry="18"/>
<text text-anchor="middle" x="321.15" y="-662.3" font-family="Times New Roman,serif" font-size="14.00">005b45b4</text>
</g>
<!-- 00d55407&#45;&gt;005b45b4 -->
<g id="edge11" class="edge">
<title>00d55407&#45;&gt;005b45b4</title>
<path fill="none" stroke="black" d="M278.42,-720.41C285.32,-711.78 293.9,-701.06 301.55,-691.5"/>
<polygon fill="black" stroke="black" points="304.46,-693.47 307.97,-683.47 298.99,-689.09 304.46,-693.47"/>
</g>
<!-- 00453483&#45;&gt;00a26a3a -->
<g id="edge25" class="edge">
<title>00453483&#45;&gt;00a26a3a</title>
<path fill="none" stroke="black" d="M739.59,-1512.41C733.05,-1503.78 724.94,-1493.06 717.69,-1483.5"/>
<polygon fill="black" stroke="black" points="720.44,-1481.33 711.62,-1475.47 714.86,-1485.56 720.44,-1481.33"/>
</g>
<!-- 00a0ca44 -->
<g id="node22" class="node">
<title>00a0ca44</title>
<ellipse fill="none" stroke="black" cx="806.15" cy="-1458" rx="44.69" ry="18"/>
<text text-anchor="middle" x="806.15" y="-1454.3" font-family="Times New Roman,serif" font-size="14.00">00a0ca44</text>
</g>
<!-- 00453483&#45;&gt;00a0ca44 -->
<g id="edge12" class="edge">
<title>00453483&#45;&gt;00a0ca44</title>
<path fill="none" stroke="black" d="M764.94,-1512.41C771.6,-1503.78 779.87,-1493.06 787.25,-1483.5"/>
<polygon fill="black" stroke="black" points="790.1,-1485.53 793.44,-1475.47 784.56,-1481.25 790.1,-1485.53"/>
</g>
<!-- 008f589f&#45;&gt;0061827d -->
<g id="edge41" class="edge">
<title>008f589f&#45;&gt;0061827d</title>
<path fill="none" stroke="black" d="M685.62,-1296.76C678.97,-1288.14 670.66,-1277.36 663.22,-1267.73"/>
<polygon fill="black" stroke="black" points="665.86,-1265.41 656.98,-1259.63 660.31,-1269.69 665.86,-1265.41"/>
</g>
<!-- 006e860a -->
<g id="node39" class="node">
<title>006e860a</title>
<ellipse fill="none" stroke="black" cx="753.15" cy="-1242" rx="44.69" ry="18"/>
<text text-anchor="middle" x="753.15" y="-1238.3" font-family="Times New Roman,serif" font-size="14.00">006e860a</text>
</g>
<!-- 008f589f&#45;&gt;006e860a -->
<g id="edge30" class="edge">
<title>008f589f&#45;&gt;006e860a</title>
<path fill="none" stroke="black" d="M710.9,-1296.76C717.68,-1288.14 726.15,-1277.36 733.72,-1267.73"/>
<polygon fill="black" stroke="black" points="736.65,-1269.66 740.08,-1259.63 731.15,-1265.33 736.65,-1269.66"/>
</g>
<!-- 0024949e -->
<g id="node25" class="node">
<title>0024949e</title>
<ellipse fill="none" stroke="black" cx="101.15" cy="-90" rx="45.49" ry="18"/>
<text text-anchor="middle" x="101.15" y="-86.3" font-family="Times New Roman,serif" font-size="14.00">0024949e</text>
</g>
<!-- 00acb9c0 -->
<g id="node26" class="node">
<title>00acb9c0</title>
<ellipse fill="none" stroke="black" cx="46.15" cy="-18" rx="46.29" ry="18"/>
<text text-anchor="middle" x="46.15" y="-14.3" font-family="Times New Roman,serif" font-size="14.00">00acb9c0</text>
</g>
<!-- 0024949e&#45;&gt;00acb9c0 -->
<g id="edge15" class="edge">
<title>0024949e&#45;&gt;00acb9c0</title>
<path fill="none" stroke="black" d="M88.11,-72.41C81.33,-63.78 72.91,-53.06 65.39,-43.5"/>
<polygon fill="black" stroke="black" points="68.02,-41.17 59.09,-35.47 62.51,-45.5 68.02,-41.17"/>
</g>
<!-- 00b28276 -->
<g id="node28" class="node">
<title>00b28276</title>
<ellipse fill="none" stroke="black" cx="156.15" cy="-18" rx="46.29" ry="18"/>
<text text-anchor="middle" x="156.15" y="-14.3" font-family="Times New Roman,serif" font-size="14.00">00b28276</text>
</g>
<!-- 0024949e&#45;&gt;00b28276 -->
<g id="edge17" class="edge">
<title>0024949e&#45;&gt;00b28276</title>
<path fill="none" stroke="black" d="M114.18,-72.41C120.96,-63.78 129.38,-53.06 136.9,-43.5"/>
<polygon fill="black" stroke="black" points="139.78,-45.5 143.21,-35.47 134.27,-41.17 139.78,-45.5"/>
</g>
<!-- 006bc594&#45;&gt;00f66640 -->
<g id="edge16" class="edge">
<title>006bc594&#45;&gt;00f66640</title>
<path fill="none" stroke="black" d="M252.35,-576.41C245.69,-567.78 237.42,-557.06 230.04,-547.5"/>
<polygon fill="black" stroke="black" points="232.73,-545.25 223.85,-539.47 227.19,-549.53 232.73,-545.25"/>
</g>
<!-- 00cdf427 -->
<g id="node35" class="node">
<title>00cdf427</title>
<ellipse fill="none" stroke="black" cx="318.15" cy="-522" rx="44.69" ry="18"/>
<text text-anchor="middle" x="318.15" y="-518.3" font-family="Times New Roman,serif" font-size="14.00">00cdf427</text>
</g>
<!-- 006bc594&#45;&gt;00cdf427 -->
<g id="edge23" class="edge">
<title>006bc594&#45;&gt;00cdf427</title>
<path fill="none" stroke="black" d="M277.71,-576.41C284.24,-567.78 292.36,-557.06 299.6,-547.5"/>
<polygon fill="black" stroke="black" points="302.43,-549.56 305.68,-539.47 296.85,-545.33 302.43,-549.56"/>
</g>
<!-- 003e41b1 -->
<g id="node30" class="node">
<title>003e41b1</title>
<ellipse fill="none" stroke="black" cx="101.15" cy="-234" rx="46.29" ry="18"/>
<text text-anchor="middle" x="101.15" y="-230.3" font-family="Times New Roman,serif" font-size="14.00">003e41b1</text>
</g>
<!-- 00795d70 -->
<g id="node31" class="node">
<title>00795d70</title>
<ellipse fill="none" stroke="black" cx="47.15" cy="-162" rx="46.29" ry="18"/>
<text text-anchor="middle" x="47.15" y="-158.3" font-family="Times New Roman,serif" font-size="14.00">00795d70</text>
</g>
<!-- 003e41b1&#45;&gt;00795d70 -->
<g id="edge19" class="edge">
<title>003e41b1&#45;&gt;00795d70</title>
<path fill="none" stroke="black" d="M88.35,-216.41C81.69,-207.78 73.42,-197.06 66.04,-187.5"/>
<polygon fill="black" stroke="black" points="68.73,-185.25 59.85,-179.47 63.19,-189.53 68.73,-185.25"/>
</g>
<!-- 000838cf -->
<g id="node41" class="node">
<title>000838cf</title>
<ellipse fill="none" stroke="black" cx="155.15" cy="-162" rx="44.39" ry="18"/>
<text text-anchor="middle" x="155.15" y="-158.3" font-family="Times New Roman,serif" font-size="14.00">000838cf</text>
</g>
<!-- 003e41b1&#45;&gt;000838cf -->
<g id="edge32" class="edge">
<title>003e41b1&#45;&gt;000838cf</title>
<path fill="none" stroke="black" d="M113.94,-216.41C120.6,-207.78 128.87,-197.06 136.25,-187.5"/>
<polygon fill="black" stroke="black" points="139.1,-189.53 142.44,-179.47 133.56,-185.25 139.1,-189.53"/>
</g>
<!-- 000838cf&#45;&gt;0024949e -->
<g id="edge44" class="edge">
<title>000838cf&#45;&gt;0024949e</title>
<path fill="none" stroke="black" d="M142.35,-144.41C135.69,-135.78 127.42,-125.06 120.04,-115.5"/>
<polygon fill="black" stroke="black" points="122.73,-113.25 113.85,-107.47 117.19,-117.53 122.73,-113.25"/>
</g>
<!-- 00a11fbb -->
<g id="node44" class="node">
<title>00a11fbb</title>
<ellipse fill="none" stroke="black" cx="209.15" cy="-90" rx="44.69" ry="18"/>
<text text-anchor="middle" x="209.15" y="-86.3" font-family="Times New Roman,serif" font-size="14.00">00a11fbb</text>
</g>
<!-- 000838cf&#45;&gt;00a11fbb -->
<g id="edge37" class="edge">
<title>000838cf&#45;&gt;00a11fbb</title>
<path fill="none" stroke="black" d="M167.94,-144.41C174.6,-135.78 182.87,-125.06 190.25,-115.5"/>
<polygon fill="black" stroke="black" points="193.1,-117.53 196.44,-107.47 187.56,-113.25 193.1,-117.53"/>
</g>
<!-- 00b47622&#45;&gt;003e41b1 -->
<g id="edge42" class="edge">
<title>00b47622&#45;&gt;003e41b1</title>
<path fill="none" stroke="black" d="M143.87,-288.41C136.97,-279.78 128.4,-269.06 120.74,-259.5"/>
<polygon fill="black" stroke="black" points="123.3,-257.09 114.32,-251.47 117.84,-261.47 123.3,-257.09"/>
</g>
<!-- 009bdeb5 -->
<g id="node47" class="node">
<title>009bdeb5</title>
<ellipse fill="none" stroke="black" cx="212.15" cy="-234" rx="46.59" ry="18"/>
<text text-anchor="middle" x="212.15" y="-230.3" font-family="Times New Roman,serif" font-size="14.00">009bdeb5</text>
</g>
<!-- 00b47622&#45;&gt;009bdeb5 -->
<g id="edge43" class="edge">
<title>00b47622&#45;&gt;009bdeb5</title>
<path fill="none" stroke="black" d="M170.18,-288.41C176.96,-279.78 185.38,-269.06 192.9,-259.5"/>
<polygon fill="black" stroke="black" points="195.78,-261.5 199.21,-251.47 190.27,-257.17 195.78,-261.5"/>
</g>
</g>
</svg>
