<?xml version="1.0" encoding="UTF-8" standalone="no"?>
<!DOCTYPE svg PUBLIC "-//W3C//DTD SVG 1.1//EN"
 "http://www.w3.org/Graphics/SVG/1.1/DTD/svg11.dtd">
<!-- Generated by graphviz version 2.49.0 (20210828.1703)
 -->
<!-- Title: G Pages: 1 -->
<svg width="229pt" height="1251pt"
 viewBox="0.00 0.00 229.15 1251.00" xmlns="http://www.w3.org/2000/svg" xmlns:xlink="http://www.w3.org/1999/xlink">
<g id="graph0" class="graph" transform="scale(1 1) rotate(0) translate(4 1247)">
<title>G</title>
<polygon fill="white" stroke="transparent" points="-4,4 -4,-1247 225.15,-1247 225.15,4 -4,4"/>
<g id="clust1" class="cluster">
<title>cluster_0</title>
<polygon fill="lightgrey" stroke="lightgrey" points="8,-8 8,-1235 118,-1235 118,-8 8,-8"/>
<text text-anchor="middle" x="63" y="-1219.8" font-family="Times New Roman,serif" font-size="14.00">Active</text>
</g>
<!-- 000ac69f -->
<g id="node1" class="node">
<title>000ac69f</title>
<ellipse fill="white" stroke="white" cx="65" cy="-1186" rx="44.39" ry="18"/>
<text text-anchor="middle" x="65" y="-1182.3" font-family="Times New Roman,serif" font-size="14.00">000ac69f</text>
</g>
<!-- 004540e6 -->
<g id="node2" class="node">
<title>004540e6</title>
<ellipse fill="white" stroke="white" cx="65" cy="-1114" rx="45.49" ry="18"/>
<text text-anchor="middle" x="65" y="-1110.3" font-family="Times New Roman,serif" font-size="14.00">004540e6</text>
</g>
<!-- 000ac69f&#45;&gt;004540e6 -->
<g id="edge1" class="edge">
<title>000ac69f&#45;&gt;004540e6</title>
<path fill="none" stroke="black" d="M65,-1167.7C65,-1159.98 65,-1150.71 65,-1142.11"/>
<polygon fill="black" stroke="black" points="68.5,-1142.1 65,-1132.1 61.5,-1142.1 68.5,-1142.1"/>
</g>
<!-- 00a5c5d7 -->
<g id="node27" class="node">
<title>00a5c5d7</title>
<ellipse fill="none" stroke="black" cx="175" cy="-1114" rx="46.29" ry="18"/>
<text text-anchor="middle" x="175" y="-1110.3" font-family="Times New Roman,serif" font-size="14.00">00a5c5d7</text>
</g>
<!-- 000ac69f&#45;&gt;00a5c5d7 -->
<g id="edge26" class="edge">
<title>000ac69f&#45;&gt;00a5c5d7</title>
<path fill="none" stroke="black" d="M87.79,-1170.5C103.76,-1160.33 125.32,-1146.61 143.01,-1135.36"/>
<polygon fill="black" stroke="black" points="145.3,-1138.05 151.86,-1129.73 141.54,-1132.14 145.3,-1138.05"/>
</g>
<!-- 004fa4ff -->
<g id="node3" class="node">
<title>004fa4ff</title>
<ellipse fill="white" stroke="white" cx="65" cy="-1042" rx="40.89" ry="18"/>
<text text-anchor="middle" x="65" y="-1038.3" font-family="Times New Roman,serif" font-size="14.00">004fa4ff</text>
</g>
<!-- 004540e6&#45;&gt;004fa4ff -->
<g id="edge2" class="edge">
<title>004540e6&#45;&gt;004fa4ff</title>
<path fill="none" stroke="black" d="M65,-1095.7C65,-1087.98 65,-1078.71 65,-1070.11"/>
<polygon fill="black" stroke="black" points="68.5,-1070.1 65,-1060.1 61.5,-1070.1 68.5,-1070.1"/>
</g>
<!-- 0091dada -->
<g id="node18" class="node">
<title>0091dada</title>
<ellipse fill="none" stroke="black" cx="172" cy="-1042" rx="46.29" ry="18"/>
<text text-anchor="middle" x="172" y="-1038.3" font-family="Times New Roman,serif" font-size="14.00">0091dada</text>
</g>
<!-- 004540e6&#45;&gt;0091dada -->
<g id="edge17" class="edge">
<title>004540e6&#45;&gt;0091dada</title>
<path fill="none" stroke="black" d="M87.43,-1098.33C102.88,-1088.22 123.61,-1074.66 140.68,-1063.49"/>
<polygon fill="black" stroke="black" points="142.78,-1066.3 149.23,-1057.9 138.95,-1060.44 142.78,-1066.3"/>
</g>
<!-- 00180bf8 -->
<g id="node4" class="node">
<title>00180bf8</title>
<ellipse fill="white" stroke="white" cx="64" cy="-970" rx="44.69" ry="18"/>
<text text-anchor="middle" x="64" y="-966.3" font-family="Times New Roman,serif" font-size="14.00">00180bf8</text>
</g>
<!-- 004fa4ff&#45;&gt;00180bf8 -->
<g id="edge3" class="edge">
<title>004fa4ff&#45;&gt;00180bf8</title>
<path fill="none" stroke="black" d="M64.75,-1023.7C64.64,-1015.98 64.51,-1006.71 64.39,-998.11"/>
<polygon fill="black" stroke="black" points="67.89,-998.05 64.24,-988.1 60.89,-998.15 67.89,-998.05"/>
</g>
<!-- 000a8d96 -->
<g id="node21" class="node">
<title>000a8d96</title>
<ellipse fill="none" stroke="black" cx="173" cy="-970" rx="46.29" ry="18"/>
<text text-anchor="middle" x="173" y="-966.3" font-family="Times New Roman,serif" font-size="14.00">000a8d96</text>
</g>
<!-- 004fa4ff&#45;&gt;000a8d96 -->
<g id="edge20" class="edge">
<title>004fa4ff&#45;&gt;000a8d96</title>
<path fill="none" stroke="black" d="M87.12,-1026.67C102.78,-1016.52 124.01,-1002.75 141.45,-991.45"/>
<polygon fill="black" stroke="black" points="143.68,-994.17 150.17,-985.8 139.87,-988.3 143.68,-994.17"/>
</g>
<!-- 00bd4b55 -->
<g id="node5" class="node">
<title>00bd4b55</title>
<ellipse fill="white" stroke="white" cx="63" cy="-898" rx="47.39" ry="18"/>
<text text-anchor="middle" x="63" y="-894.3" font-family="Times New Roman,serif" font-size="14.00">00bd4b55</text>
</g>
<!-- 00180bf8&#45;&gt;00bd4b55 -->
<g id="edge4" class="edge">
<title>00180bf8&#45;&gt;00bd4b55</title>
<path fill="none" stroke="black" d="M63.75,-951.7C63.64,-943.98 63.51,-934.71 63.39,-926.11"/>
<polygon fill="black" stroke="black" points="66.89,-926.05 63.24,-916.1 59.89,-926.15 66.89,-926.05"/>
</g>
<!-- 00743f8d -->
<g id="node32" class="node">
<title>00743f8d</title>
<ellipse fill="none" stroke="black" cx="173" cy="-898" rx="44.69" ry="18"/>
<text text-anchor="middle" x="173" y="-894.3" font-family="Times New Roman,serif" font-size="14.00">00743f8d</text>
</g>
<!-- 00180bf8&#45;&gt;00743f8d -->
<g id="edge31" class="edge">
<title>00180bf8&#45;&gt;00743f8d</title>
<path fill="none" stroke="black" d="M86.85,-954.33C102.69,-944.15 123.99,-930.47 141.45,-919.26"/>
<polygon fill="black" stroke="black" points="143.66,-922 150.18,-913.65 139.87,-916.11 143.66,-922"/>
</g>
<!-- 003ebf44 -->
<g id="node6" class="node">
<title>003ebf44</title>
<ellipse fill="white" stroke="white" cx="64" cy="-826" rx="44.39" ry="18"/>
<text text-anchor="middle" x="64" y="-822.3" font-family="Times New Roman,serif" font-size="14.00">003ebf44</text>
</g>
<!-- 00bd4b55&#45;&gt;003ebf44 -->
<g id="edge5" class="edge">
<title>00bd4b55&#45;&gt;003ebf44</title>
<path fill="none" stroke="black" d="M63.25,-879.7C63.36,-871.98 63.49,-862.71 63.61,-854.11"/>
<polygon fill="black" stroke="black" points="67.11,-854.15 63.76,-844.1 60.11,-854.05 67.11,-854.15"/>
</g>
<!-- 00681c21 -->
<g id="node20" class="node">
<title>00681c21</title>
<ellipse fill="none" stroke="black" cx="172" cy="-826" rx="46.29" ry="18"/>
<text text-anchor="middle" x="172" y="-822.3" font-family="Times New Roman,serif" font-size="14.00">00681c21</text>
</g>
<!-- 00bd4b55&#45;&gt;00681c21 -->
<g id="edge19" class="edge">
<title>00bd4b55&#45;&gt;00681c21</title>
<path fill="none" stroke="black" d="M86.12,-882.15C101.87,-872.04 122.93,-858.52 140.25,-847.39"/>
<polygon fill="black" stroke="black" points="142.39,-850.17 148.92,-841.82 138.61,-844.28 142.39,-850.17"/>
</g>
<!-- 00e10fcc -->
<g id="node7" class="node">
<title>00e10fcc</title>
<ellipse fill="white" stroke="white" cx="64" cy="-754" rx="44.39" ry="18"/>
<text text-anchor="middle" x="64" y="-750.3" font-family="Times New Roman,serif" font-size="14.00">00e10fcc</text>
</g>
<!-- 003ebf44&#45;&gt;00e10fcc -->
<g id="edge6" class="edge">
<title>003ebf44&#45;&gt;00e10fcc</title>
<path fill="none" stroke="black" d="M64,-807.7C64,-799.98 64,-790.71 64,-782.11"/>
<polygon fill="black" stroke="black" points="67.5,-782.1 64,-772.1 60.5,-782.1 67.5,-782.1"/>
</g>
<!-- 0065405f -->
<g id="node33" class="node">
<title>0065405f</title>
<ellipse fill="none" stroke="black" cx="170" cy="-754" rx="44.39" ry="18"/>
<text text-anchor="middle" x="170" y="-750.3" font-family="Times New Roman,serif" font-size="14.00">0065405f</text>
</g>
<!-- 003ebf44&#45;&gt;0065405f -->
<g id="edge32" class="edge">
<title>003ebf44&#45;&gt;0065405f</title>
<path fill="none" stroke="black" d="M86.22,-810.33C101.63,-800.15 122.34,-786.47 139.32,-775.26"/>
<polygon fill="black" stroke="black" points="141.39,-778.09 147.81,-769.65 137.53,-772.25 141.39,-778.09"/>
</g>
<!-- 001f4a61 -->
<g id="node8" class="node">
<title>001f4a61</title>
<ellipse fill="white" stroke="white" cx="64" cy="-682" rx="44.39" ry="18"/>
<text text-anchor="middle" x="64" y="-678.3" font-family="Times New Roman,serif" font-size="14.00">001f4a61</text>
</g>
<!-- 00e10fcc&#45;&gt;001f4a61 -->
<g id="edge7" class="edge">
<title>00e10fcc&#45;&gt;001f4a61</title>
<path fill="none" stroke="black" d="M64,-735.7C64,-727.98 64,-718.71 64,-710.11"/>
<polygon fill="black" stroke="black" points="67.5,-710.1 64,-700.1 60.5,-710.1 67.5,-710.1"/>
</g>
<!-- 004a3be0 -->
<g id="node24" class="node">
<title>004a3be0</title>
<ellipse fill="none" stroke="black" cx="172" cy="-682" rx="45.49" ry="18"/>
<text text-anchor="middle" x="172" y="-678.3" font-family="Times New Roman,serif" font-size="14.00">004a3be0</text>
</g>
<!-- 00e10fcc&#45;&gt;004a3be0 -->
<g id="edge23" class="edge">
<title>00e10fcc&#45;&gt;004a3be0</title>
<path fill="none" stroke="black" d="M86.64,-738.33C102.34,-728.15 123.44,-714.47 140.74,-703.26"/>
<polygon fill="black" stroke="black" points="142.9,-706.03 149.39,-697.65 139.09,-700.16 142.9,-706.03"/>
</g>
<!-- 0021e432 -->
<g id="node9" class="node">
<title>0021e432</title>
<ellipse fill="white" stroke="white" cx="64" cy="-610" rx="45.49" ry="18"/>
<text text-anchor="middle" x="64" y="-606.3" font-family="Times New Roman,serif" font-size="14.00">0021e432</text>
</g>
<!-- 001f4a61&#45;&gt;0021e432 -->
<g id="edge8" class="edge">
<title>001f4a61&#45;&gt;0021e432</title>
<path fill="none" stroke="black" d="M64,-663.7C64,-655.98 64,-646.71 64,-638.11"/>
<polygon fill="black" stroke="black" points="67.5,-638.1 64,-628.1 60.5,-638.1 67.5,-638.1"/>
</g>
<!-- 0033a872 -->
<g id="node28" class="node">
<title>0033a872</title>
<ellipse fill="none" stroke="black" cx="173" cy="-610" rx="45.49" ry="18"/>
<text text-anchor="middle" x="173" y="-606.3" font-family="Times New Roman,serif" font-size="14.00">0033a872</text>
</g>
<!-- 001f4a61&#45;&gt;0033a872 -->
<g id="edge27" class="edge">
<title>001f4a61&#45;&gt;0033a872</title>
<path fill="none" stroke="black" d="M86.58,-666.5C102.41,-656.33 123.78,-642.61 141.3,-631.36"/>
<polygon fill="black" stroke="black" points="143.55,-634.08 150.07,-625.73 139.76,-628.19 143.55,-634.08"/>
</g>
<!-- 00a7fb3a -->
<g id="node10" class="node">
<title>00a7fb3a</title>
<ellipse fill="white" stroke="white" cx="64" cy="-538" rx="44.39" ry="18"/>
<text text-anchor="middle" x="64" y="-534.3" font-family="Times New Roman,serif" font-size="14.00">00a7fb3a</text>
</g>
<!-- 0021e432&#45;&gt;00a7fb3a -->
<g id="edge9" class="edge">
<title>0021e432&#45;&gt;00a7fb3a</title>
<path fill="none" stroke="black" d="M64,-591.7C64,-583.98 64,-574.71 64,-566.11"/>
<polygon fill="black" stroke="black" points="67.5,-566.1 64,-556.1 60.5,-566.1 67.5,-566.1"/>
</g>
<!-- 00d38eab -->
<g id="node22" class="node">
<title>00d38eab</title>
<ellipse fill="none" stroke="black" cx="172" cy="-538" rx="46.29" ry="18"/>
<text text-anchor="middle" x="172" y="-534.3" font-family="Times New Roman,serif" font-size="14.00">00d38eab</text>
</g>
<!-- 0021e432&#45;&gt;00d38eab -->
<g id="edge21" class="edge">
<title>0021e432&#45;&gt;00d38eab</title>
<path fill="none" stroke="black" d="M86.64,-594.33C102.23,-584.22 123.16,-570.66 140.39,-559.49"/>
<polygon fill="black" stroke="black" points="142.53,-562.27 149.02,-553.9 138.72,-556.4 142.53,-562.27"/>
</g>
<!-- 00d571d0 -->
<g id="node11" class="node">
<title>00d571d0</title>
<ellipse fill="white" stroke="white" cx="63" cy="-466" rx="46.59" ry="18"/>
<text text-anchor="middle" x="63" y="-462.3" font-family="Times New Roman,serif" font-size="14.00">00d571d0</text>
</g>
<!-- 00a7fb3a&#45;&gt;00d571d0 -->
<g id="edge10" class="edge">
<title>00a7fb3a&#45;&gt;00d571d0</title>
<path fill="none" stroke="black" d="M63.75,-519.7C63.64,-511.98 63.51,-502.71 63.39,-494.11"/>
<polygon fill="black" stroke="black" points="66.89,-494.05 63.24,-484.1 59.89,-494.15 66.89,-494.05"/>
</g>
<!-- 00c6b616 -->
<g id="node23" class="node">
<title>00c6b616</title>
<ellipse fill="none" stroke="black" cx="174" cy="-466" rx="46.29" ry="18"/>
<text text-anchor="middle" x="174" y="-462.3" font-family="Times New Roman,serif" font-size="14.00">00c6b616</text>
</g>
<!-- 00a7fb3a&#45;&gt;00c6b616 -->
<g id="edge22" class="edge">
<title>00a7fb3a&#45;&gt;00c6b616</title>
<path fill="none" stroke="black" d="M86.79,-522.5C102.76,-512.33 124.32,-498.61 142.01,-487.36"/>
<polygon fill="black" stroke="black" points="144.3,-490.05 150.86,-481.73 140.54,-484.14 144.3,-490.05"/>
</g>
<!-- 0082f57c -->
<g id="node12" class="node">
<title>0082f57c</title>
<ellipse fill="white" stroke="white" cx="63" cy="-394" rx="44.39" ry="18"/>
<text text-anchor="middle" x="63" y="-390.3" font-family="Times New Roman,serif" font-size="14.00">0082f57c</text>
</g>
<!-- 00d571d0&#45;&gt;0082f57c -->
<g id="edge11" class="edge">
<title>00d571d0&#45;&gt;0082f57c</title>
<path fill="none" stroke="black" d="M63,-447.7C63,-439.98 63,-430.71 63,-422.11"/>
<polygon fill="black" stroke="black" points="66.5,-422.1 63,-412.1 59.5,-422.1 66.5,-422.1"/>
</g>
<!-- 00f4ed66 -->
<g id="node25" class="node">
<title>00f4ed66</title>
<ellipse fill="none" stroke="black" cx="170" cy="-394" rx="44.39" ry="18"/>
<text text-anchor="middle" x="170" y="-390.3" font-family="Times New Roman,serif" font-size="14.00">00f4ed66</text>
</g>
<!-- 00d571d0&#45;&gt;00f4ed66 -->
<g id="edge24" class="edge">
<title>00d571d0&#45;&gt;00f4ed66</title>
<path fill="none" stroke="black" d="M85.69,-450.15C101.26,-439.97 122.11,-426.33 139.17,-415.17"/>
<polygon fill="black" stroke="black" points="141.26,-417.99 147.71,-409.58 137.42,-412.13 141.26,-417.99"/>
</g>
<!-- 007e28b7 -->
<g id="node13" class="node">
<title>007e28b7</title>
<ellipse fill="white" stroke="white" cx="63" cy="-322" rx="46.29" ry="18"/>
<text text-anchor="middle" x="63" y="-318.3" font-family="Times New Roman,serif" font-size="14.00">007e28b7</text>
</g>
<!-- 0082f57c&#45;&gt;007e28b7 -->
<g id="edge12" class="edge">
<title>0082f57c&#45;&gt;007e28b7</title>
<path fill="none" stroke="black" d="M63,-375.7C63,-367.98 63,-358.71 63,-350.11"/>
<polygon fill="black" stroke="black" points="66.5,-350.1 63,-340.1 59.5,-350.1 66.5,-350.1"/>
</g>
<!-- 00767ee7 -->
<g id="node26" class="node">
<title>00767ee7</title>
<ellipse fill="none" stroke="black" cx="172" cy="-322" rx="44.69" ry="18"/>
<text text-anchor="middle" x="172" y="-318.3" font-family="Times New Roman,serif" font-size="14.00">00767ee7</text>
</g>
<!-- 0082f57c&#45;&gt;00767ee7 -->
<g id="edge25" class="edge">
<title>0082f57c&#45;&gt;00767ee7</title>
<path fill="none" stroke="black" d="M85.58,-378.5C101.41,-368.33 122.78,-354.61 140.3,-343.36"/>
<polygon fill="black" stroke="black" points="142.55,-346.08 149.07,-337.73 138.76,-340.19 142.55,-346.08"/>
</g>
<!-- 00a49d35 -->
<g id="node14" class="node">
<title>00a49d35</title>
<ellipse fill="white" stroke="white" cx="63" cy="-250" rx="46.29" ry="18"/>
<text text-anchor="middle" x="63" y="-246.3" font-family="Times New Roman,serif" font-size="14.00">00a49d35</text>
</g>
<!-- 007e28b7&#45;&gt;00a49d35 -->
<g id="edge13" class="edge">
<title>007e28b7&#45;&gt;00a49d35</title>
<path fill="none" stroke="black" d="M63,-303.7C63,-295.98 63,-286.71 63,-278.11"/>
<polygon fill="black" stroke="black" points="66.5,-278.1 63,-268.1 59.5,-278.1 66.5,-278.1"/>
</g>
<!-- 00fb2de3 -->
<g id="node19" class="node">
<title>00fb2de3</title>
<ellipse fill="none" stroke="black" cx="172" cy="-250" rx="44.69" ry="18"/>
<text text-anchor="middle" x="172" y="-246.3" font-family="Times New Roman,serif" font-size="14.00">00fb2de3</text>
</g>
<!-- 007e28b7&#45;&gt;00fb2de3 -->
<g id="edge18" class="edge">
<title>007e28b7&#45;&gt;00fb2de3</title>
<path fill="none" stroke="black" d="M85.85,-306.33C101.69,-296.15 122.99,-282.47 140.45,-271.26"/>
<polygon fill="black" stroke="black" points="142.66,-274 149.18,-265.65 138.87,-268.11 142.66,-274"/>
</g>
<!-- 00521de5 -->
<g id="node15" class="node">
<title>00521de5</title>
<ellipse fill="white" stroke="white" cx="63" cy="-178" rx="46.29" ry="18"/>
<text text-anchor="middle" x="63" y="-174.3" font-family="Times New Roman,serif" font-size="14.00">00521de5</text>
</g>
<!-- 00a49d35&#45;&gt;00521de5 -->
<g id="edge14" class="edge">
<title>00a49d35&#45;&gt;00521de5</title>
<path fill="none" stroke="black" d="M63,-231.7C63,-223.98 63,-214.71 63,-206.11"/>
<polygon fill="black" stroke="black" points="66.5,-206.1 63,-196.1 59.5,-206.1 66.5,-206.1"/>
</g>
<!-- 00ebe4fb -->
<g id="node31" class="node">
<title>00ebe4fb</title>
<ellipse fill="none" stroke="black" cx="171" cy="-178" rx="44.39" ry="18"/>
<text text-anchor="middle" x="171" y="-174.3" font-family="Times New Roman,serif" font-size="14.00">00ebe4fb</text>
</g>
<!-- 00a49d35&#45;&gt;00ebe4fb -->
<g id="edge30" class="edge">
<title>00a49d35&#45;&gt;00ebe4fb</title>
<path fill="none" stroke="black" d="M85.9,-234.15C101.62,-223.97 122.66,-210.33 139.89,-199.17"/>
<polygon fill="black" stroke="black" points="142.01,-201.96 148.5,-193.58 138.2,-196.09 142.01,-201.96"/>
</g>
<!-- 00dfaa88 -->
<g id="node16" class="node">
<title>00dfaa88</title>
<ellipse fill="white" stroke="white" cx="63" cy="-106" rx="44.39" ry="18"/>
<text text-anchor="middle" x="63" y="-102.3" font-family="Times New Roman,serif" font-size="14.00">00dfaa88</text>
</g>
<!-- 00521de5&#45;&gt;00dfaa88 -->
<g id="edge15" class="edge">
<title>00521de5&#45;&gt;00dfaa88</title>
<path fill="none" stroke="black" d="M63,-159.7C63,-151.98 63,-142.71 63,-134.11"/>
<polygon fill="black" stroke="black" points="66.5,-134.1 63,-124.1 59.5,-134.1 66.5,-134.1"/>
</g>
<!-- 00a06e0f -->
<g id="node29" class="node">
<title>00a06e0f</title>
<ellipse fill="none" stroke="black" cx="170" cy="-106" rx="43.59" ry="18"/>
<text text-anchor="middle" x="170" y="-102.3" font-family="Times New Roman,serif" font-size="14.00">00a06e0f</text>
</g>
<!-- 00521de5&#45;&gt;00a06e0f -->
<g id="edge28" class="edge">
<title>00521de5&#45;&gt;00a06e0f</title>
<path fill="none" stroke="black" d="M85.69,-162.15C101.26,-151.97 122.11,-138.33 139.17,-127.17"/>
<polygon fill="black" stroke="black" points="141.26,-129.99 147.71,-121.58 137.42,-124.13 141.26,-129.99"/>
</g>
<!-- 0030be35 -->
<g id="node17" class="node">
<title>0030be35</title>
<ellipse fill="white" stroke="white" cx="63" cy="-34" rx="46.29" ry="18"/>
<text text-anchor="middle" x="63" y="-30.3" font-family="Times New Roman,serif" font-size="14.00">0030be35</text>
</g>
<!-- 00dfaa88&#45;&gt;0030be35 -->
<g id="edge16" class="edge">
<title>00dfaa88&#45;&gt;0030be35</title>
<path fill="none" stroke="black" d="M63,-87.7C63,-79.98 63,-70.71 63,-62.11"/>
<polygon fill="black" stroke="black" points="66.5,-62.1 63,-52.1 59.5,-62.1 66.5,-62.1"/>
</g>
<!-- 00ac1bf2 -->
<g id="node30" class="node">
<title>00ac1bf2</title>
<ellipse fill="none" stroke="black" cx="171" cy="-34" rx="44.39" ry="18"/>
<text text-anchor="middle" x="171" y="-30.3" font-family="Times New Roman,serif" font-size="14.00">00ac1bf2</text>
</g>
<!-- 00dfaa88&#45;&gt;00ac1bf2 -->
<g id="edge29" class="edge">
<title>00dfaa88&#45;&gt;00ac1bf2</title>
<path fill="none" stroke="black" d="M85.64,-90.33C101.34,-80.15 122.44,-66.47 139.74,-55.26"/>
<polygon fill="black" stroke="black" points="141.9,-58.03 148.39,-49.65 138.09,-52.16 141.9,-58.03"/>
</g>
</g>
</svg>
